<mxfile host="app.diagrams.net" agent="Mozilla/5.0 (iPad; CPU OS 18_3_2 like Mac OS X) AppleWebKit/605.1.15 (KHTML, like Gecko) GSA/367.0.752095380 Mobile/15E148 Safari/604.1" version="27.0.5">
  <diagram name="Strona-1" id="LThVWZ4z2KTK9go1ueMm">
    <mxGraphModel grid="1" page="1" gridSize="10" guides="1" tooltips="1" connect="1" arrows="1" fold="1" pageScale="1" pageWidth="827" pageHeight="1169" math="0" shadow="0">
      <root>
        <mxCell id="0" />
        <mxCell id="1" parent="0" />
        <mxCell id="DPprC292hNFl1io41gLD-1" style="edgeStyle=orthogonalEdgeStyle;rounded=0;orthogonalLoop=1;jettySize=auto;html=1;exitX=0.75;exitY=0;exitDx=0;exitDy=0;entryX=0.996;entryY=0.753;entryDx=0;entryDy=0;dashed=1;entryPerimeter=0;" edge="1" parent="1" source="DPprC292hNFl1io41gLD-2" target="DPprC292hNFl1io41gLD-25">
          <mxGeometry relative="1" as="geometry" />
        </mxCell>
        <mxCell id="DPprC292hNFl1io41gLD-2" value="SOR" style="swimlane;fontStyle=1;align=center;verticalAlign=top;childLayout=stackLayout;horizontal=1;startSize=26;horizontalStack=0;resizeParent=1;resizeParentMax=0;resizeLast=0;collapsible=1;marginBottom=0;whiteSpace=wrap;html=1;" vertex="1" parent="1">
          <mxGeometry x="-40" y="538" width="160" height="140" as="geometry" />
        </mxCell>
        <mxCell id="DPprC292hNFl1io41gLD-3" value="+Pacjent: List&amp;lt;Pacjenci&amp;gt;&lt;div&gt;+Personel: List&amp;lt;Personel&amp;gt;&lt;/div&gt;&lt;div&gt;+Pojemność: int&lt;/div&gt;" style="text;strokeColor=none;fillColor=none;align=left;verticalAlign=top;spacingLeft=4;spacingRight=4;overflow=hidden;rotatable=0;points=[[0,0.5],[1,0.5]];portConstraint=eastwest;whiteSpace=wrap;html=1;" vertex="1" parent="DPprC292hNFl1io41gLD-2">
          <mxGeometry y="26" width="160" height="54" as="geometry" />
        </mxCell>
        <mxCell id="DPprC292hNFl1io41gLD-4" value="" style="line;strokeWidth=1;fillColor=none;align=left;verticalAlign=middle;spacingTop=-1;spacingLeft=3;spacingRight=3;rotatable=0;labelPosition=right;points=[];portConstraint=eastwest;strokeColor=inherit;" vertex="1" parent="DPprC292hNFl1io41gLD-2">
          <mxGeometry y="80" width="160" height="8" as="geometry" />
        </mxCell>
        <mxCell id="DPprC292hNFl1io41gLD-5" value="+ dodajPacjent(id)&lt;div&gt;+ dodajPacent(id, stan)&lt;/div&gt;" style="text;strokeColor=none;fillColor=none;align=left;verticalAlign=top;spacingLeft=4;spacingRight=4;overflow=hidden;rotatable=0;points=[[0,0.5],[1,0.5]];portConstraint=eastwest;whiteSpace=wrap;html=1;" vertex="1" parent="DPprC292hNFl1io41gLD-2">
          <mxGeometry y="88" width="160" height="52" as="geometry" />
        </mxCell>
        <mxCell id="DPprC292hNFl1io41gLD-6" value="Objawy" style="swimlane;fontStyle=1;align=center;verticalAlign=top;childLayout=stackLayout;horizontal=1;startSize=26;horizontalStack=0;resizeParent=1;resizeParentMax=0;resizeLast=0;collapsible=1;marginBottom=0;whiteSpace=wrap;html=1;" vertex="1" parent="1">
          <mxGeometry x="380" y="440" width="160" height="108" as="geometry" />
        </mxCell>
        <mxCell id="DPprC292hNFl1io41gLD-7" value="# nazwa: String&lt;div&gt;&lt;br&gt;&lt;/div&gt;" style="text;strokeColor=none;fillColor=none;align=left;verticalAlign=top;spacingLeft=4;spacingRight=4;overflow=hidden;rotatable=0;points=[[0,0.5],[1,0.5]];portConstraint=eastwest;whiteSpace=wrap;html=1;" vertex="1" parent="DPprC292hNFl1io41gLD-6">
          <mxGeometry y="26" width="160" height="24" as="geometry" />
        </mxCell>
        <mxCell id="DPprC292hNFl1io41gLD-8" value="# ciezkosc: int" style="text;strokeColor=none;fillColor=none;align=left;verticalAlign=top;spacingLeft=4;spacingRight=4;overflow=hidden;rotatable=0;points=[[0,0.5],[1,0.5]];portConstraint=eastwest;whiteSpace=wrap;html=1;" vertex="1" parent="DPprC292hNFl1io41gLD-6">
          <mxGeometry y="50" width="160" height="24" as="geometry" />
        </mxCell>
        <mxCell id="DPprC292hNFl1io41gLD-9" value="" style="line;strokeWidth=1;fillColor=none;align=left;verticalAlign=middle;spacingTop=-1;spacingLeft=3;spacingRight=3;rotatable=0;labelPosition=right;points=[];portConstraint=eastwest;strokeColor=inherit;" vertex="1" parent="DPprC292hNFl1io41gLD-6">
          <mxGeometry y="74" width="160" height="8" as="geometry" />
        </mxCell>
        <mxCell id="DPprC292hNFl1io41gLD-10" value="+ method(type): type" style="text;strokeColor=none;fillColor=none;align=left;verticalAlign=top;spacingLeft=4;spacingRight=4;overflow=hidden;rotatable=0;points=[[0,0.5],[1,0.5]];portConstraint=eastwest;whiteSpace=wrap;html=1;" vertex="1" parent="DPprC292hNFl1io41gLD-6">
          <mxGeometry y="82" width="160" height="26" as="geometry" />
        </mxCell>
        <mxCell id="DPprC292hNFl1io41gLD-11" value="Osoba" style="swimlane;fontStyle=1;childLayout=stackLayout;horizontal=1;startSize=26;fillColor=default;horizontalStack=0;resizeParent=1;resizeParentMax=0;resizeLast=0;collapsible=1;marginBottom=0;whiteSpace=wrap;html=1;" vertex="1" parent="1">
          <mxGeometry x="-390" y="280" width="170" height="92" as="geometry" />
        </mxCell>
        <mxCell id="DPprC292hNFl1io41gLD-12" value="# typ: Enum&lt;br&gt;&lt;font style=&quot;font-size: 10px; color: light-dark(rgb(0, 0, 0), rgb(179, 179, 179));&quot;&gt;&lt;i&gt;(Personel, Pacjent)&lt;/i&gt;&lt;/font&gt;" style="text;strokeColor=none;fillColor=none;align=left;verticalAlign=top;spacingLeft=4;spacingRight=4;overflow=hidden;rotatable=0;points=[[0,0.5],[1,0.5]];portConstraint=eastwest;whiteSpace=wrap;html=1;" vertex="1" parent="DPprC292hNFl1io41gLD-11">
          <mxGeometry y="26" width="170" height="40" as="geometry" />
        </mxCell>
        <mxCell id="DPprC292hNFl1io41gLD-13" value="# id: int" style="text;strokeColor=none;fillColor=none;align=left;verticalAlign=top;spacingLeft=4;spacingRight=4;overflow=hidden;rotatable=0;points=[[0,0.5],[1,0.5]];portConstraint=eastwest;whiteSpace=wrap;html=1;" vertex="1" parent="DPprC292hNFl1io41gLD-11">
          <mxGeometry y="66" width="170" height="26" as="geometry" />
        </mxCell>
        <mxCell id="DPprC292hNFl1io41gLD-14" style="edgeStyle=orthogonalEdgeStyle;rounded=0;orthogonalLoop=1;jettySize=auto;html=1;exitX=0.5;exitY=0;exitDx=0;exitDy=0;entryX=0.5;entryY=0;entryDx=0;entryDy=0;" edge="1" parent="1" source="DPprC292hNFl1io41gLD-15" target="DPprC292hNFl1io41gLD-11">
          <mxGeometry relative="1" as="geometry" />
        </mxCell>
        <mxCell id="DPprC292hNFl1io41gLD-15" value="Personel" style="swimlane;fontStyle=1;align=center;verticalAlign=top;childLayout=stackLayout;horizontal=1;startSize=26;horizontalStack=0;resizeParent=1;resizeParentMax=0;resizeLast=0;collapsible=1;marginBottom=0;whiteSpace=wrap;html=1;" vertex="1" parent="1">
          <mxGeometry x="-510" y="410" width="160" height="128" as="geometry" />
        </mxCell>
        <mxCell id="DPprC292hNFl1io41gLD-16" value="# rola: string&lt;div&gt;&lt;font style=&quot;font-size: 10px; color: light-dark(rgb(0, 0, 0), rgb(179, 179, 179));&quot;&gt;&lt;i style=&quot;&quot;&gt;(Lekarz, Pielęgniarka)&lt;/i&gt;&lt;/font&gt;&lt;/div&gt;" style="text;strokeColor=none;fillColor=none;align=left;verticalAlign=top;spacingLeft=4;spacingRight=4;overflow=hidden;rotatable=0;points=[[0,0.5],[1,0.5]];portConstraint=eastwest;whiteSpace=wrap;html=1;" vertex="1" parent="DPprC292hNFl1io41gLD-15">
          <mxGeometry y="26" width="160" height="34" as="geometry" />
        </mxCell>
        <mxCell id="DPprC292hNFl1io41gLD-17" value="# dostepnosc: boolean" style="text;strokeColor=none;fillColor=none;align=left;verticalAlign=top;spacingLeft=4;spacingRight=4;overflow=hidden;rotatable=0;points=[[0,0.5],[1,0.5]];portConstraint=eastwest;whiteSpace=wrap;html=1;" vertex="1" parent="DPprC292hNFl1io41gLD-15">
          <mxGeometry y="60" width="160" height="34" as="geometry" />
        </mxCell>
        <mxCell id="DPprC292hNFl1io41gLD-18" value="" style="line;strokeWidth=1;fillColor=none;align=left;verticalAlign=middle;spacingTop=-1;spacingLeft=3;spacingRight=3;rotatable=0;labelPosition=right;points=[];portConstraint=eastwest;strokeColor=inherit;" vertex="1" parent="DPprC292hNFl1io41gLD-15">
          <mxGeometry y="94" width="160" height="8" as="geometry" />
        </mxCell>
        <mxCell id="DPprC292hNFl1io41gLD-19" value="+ lecz(Pacjent)" style="text;strokeColor=none;fillColor=none;align=left;verticalAlign=top;spacingLeft=4;spacingRight=4;overflow=hidden;rotatable=0;points=[[0,0.5],[1,0.5]];portConstraint=eastwest;whiteSpace=wrap;html=1;" vertex="1" parent="DPprC292hNFl1io41gLD-15">
          <mxGeometry y="102" width="160" height="26" as="geometry" />
        </mxCell>
        <mxCell id="DPprC292hNFl1io41gLD-20" style="edgeStyle=orthogonalEdgeStyle;rounded=0;orthogonalLoop=1;jettySize=auto;html=1;exitX=0.5;exitY=0;exitDx=0;exitDy=0;entryX=0.5;entryY=0;entryDx=0;entryDy=0;" edge="1" parent="1" source="DPprC292hNFl1io41gLD-22" target="DPprC292hNFl1io41gLD-11">
          <mxGeometry relative="1" as="geometry">
            <Array as="points">
              <mxPoint x="-170" y="470" />
              <mxPoint x="-170" y="260" />
              <mxPoint x="-310" y="260" />
            </Array>
          </mxGeometry>
        </mxCell>
        <mxCell id="DPprC292hNFl1io41gLD-21" style="edgeStyle=orthogonalEdgeStyle;rounded=0;orthogonalLoop=1;jettySize=auto;html=1;exitX=0.75;exitY=0;exitDx=0;exitDy=0;entryX=0;entryY=0.5;entryDx=0;entryDy=0;dashed=1;" edge="1" parent="1" source="DPprC292hNFl1io41gLD-22" target="DPprC292hNFl1io41gLD-26">
          <mxGeometry relative="1" as="geometry" />
        </mxCell>
        <mxCell id="DPprC292hNFl1io41gLD-22" value="Pacjent" style="swimlane;fontStyle=1;align=center;verticalAlign=top;childLayout=stackLayout;horizontal=1;startSize=26;horizontalStack=0;resizeParent=1;resizeParentMax=0;resizeLast=0;collapsible=1;marginBottom=0;whiteSpace=wrap;html=1;" vertex="1" parent="1">
          <mxGeometry x="-270" y="470" width="160" height="78" as="geometry" />
        </mxCell>
        <mxCell id="DPprC292hNFl1io41gLD-23" value="# stan: Enum&lt;br&gt;&lt;font style=&quot;color: light-dark(rgb(0, 0, 0), rgb(204, 204, 204)); font-size: 10px;&quot;&gt;(Niebieski, Żółty, Czerwony)&lt;/font&gt;" style="text;strokeColor=none;fillColor=none;align=left;verticalAlign=top;spacingLeft=4;spacingRight=4;overflow=hidden;rotatable=0;points=[[0,0.5],[1,0.5]];portConstraint=eastwest;whiteSpace=wrap;html=1;" vertex="1" parent="DPprC292hNFl1io41gLD-22">
          <mxGeometry y="26" width="160" height="52" as="geometry" />
        </mxCell>
        <mxCell id="DPprC292hNFl1io41gLD-24" value="Karetka" style="swimlane;fontStyle=1;childLayout=stackLayout;horizontal=1;startSize=26;fillColor=default;horizontalStack=0;resizeParent=1;resizeParentMax=0;resizeLast=0;collapsible=1;marginBottom=0;whiteSpace=wrap;html=1;" vertex="1" parent="1">
          <mxGeometry x="-60" y="340" width="150" height="130" as="geometry" />
        </mxCell>
        <mxCell id="DPprC292hNFl1io41gLD-25" value="# pacjenci: List&amp;lt;Pacjent&amp;gt;" style="text;strokeColor=none;fillColor=none;align=left;verticalAlign=top;spacingLeft=4;spacingRight=4;overflow=hidden;rotatable=0;points=[[0,0.5],[1,0.5]];portConstraint=eastwest;whiteSpace=wrap;html=1;" vertex="1" parent="DPprC292hNFl1io41gLD-24">
          <mxGeometry y="26" width="150" height="44" as="geometry" />
        </mxCell>
        <mxCell id="DPprC292hNFl1io41gLD-27" value="" style="endArrow=none;html=1;rounded=0;entryX=0.996;entryY=0.002;entryDx=0;entryDy=0;entryPerimeter=0;" edge="1" parent="DPprC292hNFl1io41gLD-24" target="DPprC292hNFl1io41gLD-26">
          <mxGeometry width="50" height="50" relative="1" as="geometry">
            <mxPoint y="70" as="sourcePoint" />
            <mxPoint x="120" y="40" as="targetPoint" />
            <Array as="points" />
          </mxGeometry>
        </mxCell>
        <mxCell id="DPprC292hNFl1io41gLD-26" value="&lt;div&gt;+ dodajPacjent(id)&lt;/div&gt;" style="text;strokeColor=none;fillColor=none;align=left;verticalAlign=top;spacingLeft=4;spacingRight=4;overflow=hidden;rotatable=0;points=[[0,0.5],[1,0.5]];portConstraint=eastwest;whiteSpace=wrap;html=1;" vertex="1" parent="DPprC292hNFl1io41gLD-24">
          <mxGeometry y="70" width="150" height="30" as="geometry" />
        </mxCell>
        <mxCell id="DPprC292hNFl1io41gLD-42" value="+ dodajPacjent(id, stan)" style="text;strokeColor=none;fillColor=none;align=left;verticalAlign=top;spacingLeft=4;spacingRight=4;overflow=hidden;rotatable=0;points=[[0,0.5],[1,0.5]];portConstraint=eastwest;whiteSpace=wrap;html=1;" vertex="1" parent="DPprC292hNFl1io41gLD-24">
          <mxGeometry y="100" width="150" height="30" as="geometry" />
        </mxCell>
        <mxCell id="DPprC292hNFl1io41gLD-28" style="edgeStyle=orthogonalEdgeStyle;rounded=0;orthogonalLoop=1;jettySize=auto;html=1;exitX=0;exitY=0.5;exitDx=0;exitDy=0;entryX=0;entryY=0.5;entryDx=0;entryDy=0;dashed=1;" edge="1" parent="1" source="DPprC292hNFl1io41gLD-3" target="DPprC292hNFl1io41gLD-16">
          <mxGeometry relative="1" as="geometry">
            <Array as="points">
              <mxPoint x="-40" y="600" />
              <mxPoint x="-530" y="600" />
              <mxPoint x="-530" y="453" />
            </Array>
          </mxGeometry>
        </mxCell>
        <mxCell id="DPprC292hNFl1io41gLD-29" value="StanPacjenta" style="swimlane;fontStyle=0;childLayout=stackLayout;horizontal=1;startSize=26;fillColor=default;horizontalStack=0;resizeParent=1;resizeParentMax=0;resizeLast=0;collapsible=1;marginBottom=0;whiteSpace=wrap;html=1;" vertex="1" parent="1">
          <mxGeometry x="180" y="372" width="140" height="166" as="geometry" />
        </mxCell>
        <mxCell id="DPprC292hNFl1io41gLD-30" value="# objawy: List&amp;lt;Objawy&amp;gt;" style="text;strokeColor=none;fillColor=none;align=left;verticalAlign=top;spacingLeft=4;spacingRight=4;overflow=hidden;rotatable=0;points=[[0,0.5],[1,0.5]];portConstraint=eastwest;whiteSpace=wrap;html=1;" vertex="1" parent="DPprC292hNFl1io41gLD-29">
          <mxGeometry y="26" width="140" height="26" as="geometry" />
        </mxCell>
        <mxCell id="DPprC292hNFl1io41gLD-31" value="# ciezkosc: int" style="text;strokeColor=none;fillColor=none;align=left;verticalAlign=top;spacingLeft=4;spacingRight=4;overflow=hidden;rotatable=0;points=[[0,0.5],[1,0.5]];portConstraint=eastwest;whiteSpace=wrap;html=1;" vertex="1" parent="DPprC292hNFl1io41gLD-29">
          <mxGeometry y="52" width="140" height="26" as="geometry" />
        </mxCell>
        <mxCell id="DPprC292hNFl1io41gLD-32" value="# stan: Enum&lt;br&gt;&lt;font style=&quot;color: light-dark(rgb(0, 0, 0), rgb(204, 204, 204)); font-size: 10px;&quot;&gt;&lt;i&gt;(Niebieski, Żółty, Czerwony)&lt;/i&gt;&lt;/font&gt;" style="text;strokeColor=none;fillColor=none;align=left;verticalAlign=top;spacingLeft=4;spacingRight=4;overflow=hidden;rotatable=0;points=[[0,0.5],[1,0.5]];portConstraint=eastwest;whiteSpace=wrap;html=1;" vertex="1" parent="DPprC292hNFl1io41gLD-29">
          <mxGeometry y="78" width="140" height="52" as="geometry" />
        </mxCell>
        <mxCell id="DPprC292hNFl1io41gLD-33" value="" style="line;strokeWidth=1;fillColor=none;align=left;verticalAlign=middle;spacingTop=-1;spacingLeft=3;spacingRight=3;rotatable=0;labelPosition=right;points=[];portConstraint=eastwest;strokeColor=inherit;" vertex="1" parent="DPprC292hNFl1io41gLD-29">
          <mxGeometry y="130" width="140" height="8" as="geometry" />
        </mxCell>
        <mxCell id="DPprC292hNFl1io41gLD-34" value="+ obliczCiezkosc()" style="text;strokeColor=none;fillColor=none;align=left;verticalAlign=top;spacingLeft=4;spacingRight=4;overflow=hidden;rotatable=0;points=[[0,0.5],[1,0.5]];portConstraint=eastwest;whiteSpace=wrap;html=1;" vertex="1" parent="DPprC292hNFl1io41gLD-29">
          <mxGeometry y="138" width="140" height="26" as="geometry" />
        </mxCell>
        <mxCell id="DPprC292hNFl1io41gLD-35" style="text;strokeColor=none;fillColor=none;align=left;verticalAlign=top;spacingLeft=4;spacingRight=4;overflow=hidden;rotatable=0;points=[[0,0.5],[1,0.5]];portConstraint=eastwest;whiteSpace=wrap;html=1;" vertex="1" parent="DPprC292hNFl1io41gLD-29">
          <mxGeometry y="164" width="140" height="2" as="geometry" />
        </mxCell>
        <mxCell id="DPprC292hNFl1io41gLD-36" style="edgeStyle=orthogonalEdgeStyle;rounded=0;orthogonalLoop=1;jettySize=auto;html=1;exitX=1;exitY=0.5;exitDx=0;exitDy=0;entryX=0.5;entryY=0;entryDx=0;entryDy=0;dashed=1;" edge="1" parent="1" source="DPprC292hNFl1io41gLD-19" target="DPprC292hNFl1io41gLD-22">
          <mxGeometry relative="1" as="geometry">
            <Array as="points">
              <mxPoint x="-310" y="525" />
              <mxPoint x="-310" y="450" />
              <mxPoint x="-190" y="450" />
            </Array>
          </mxGeometry>
        </mxCell>
        <mxCell id="DPprC292hNFl1io41gLD-37" style="edgeStyle=orthogonalEdgeStyle;rounded=0;orthogonalLoop=1;jettySize=auto;html=1;exitX=1;exitY=0.5;exitDx=0;exitDy=0;entryX=0.5;entryY=0;entryDx=0;entryDy=0;" edge="1" parent="1" source="DPprC292hNFl1io41gLD-30" target="DPprC292hNFl1io41gLD-6">
          <mxGeometry relative="1" as="geometry" />
        </mxCell>
        <mxCell id="DPprC292hNFl1io41gLD-38" style="edgeStyle=orthogonalEdgeStyle;rounded=0;orthogonalLoop=1;jettySize=auto;html=1;exitX=0;exitY=0.5;exitDx=0;exitDy=0;entryX=1;entryY=0.5;entryDx=0;entryDy=0;dashed=1;" edge="1" parent="1" source="DPprC292hNFl1io41gLD-32" target="DPprC292hNFl1io41gLD-23">
          <mxGeometry relative="1" as="geometry" />
        </mxCell>
        <mxCell id="DPprC292hNFl1io41gLD-39" value="+ dodajrole(Personel/Pacjent)" style="rounded=0;whiteSpace=wrap;html=1;fillColor=none;" vertex="1" parent="1">
          <mxGeometry x="-390" y="372" width="170" height="28" as="geometry" />
        </mxCell>
        <mxCell id="DPprC292hNFl1io41gLD-40" style="edgeStyle=orthogonalEdgeStyle;rounded=0;orthogonalLoop=1;jettySize=auto;html=1;exitX=0;exitY=0.5;exitDx=0;exitDy=0;entryX=1.017;entryY=0.769;entryDx=0;entryDy=0;entryPerimeter=0;dashed=1;" edge="1" parent="1" source="DPprC292hNFl1io41gLD-3" target="DPprC292hNFl1io41gLD-23">
          <mxGeometry relative="1" as="geometry" />
        </mxCell>
      </root>
    </mxGraphModel>
  </diagram>
</mxfile>
